<mxfile host="app.diagrams.net" modified="2024-05-08T01:05:08.438Z" agent="Mozilla/5.0 (Windows NT 10.0; Win64; x64) AppleWebKit/537.36 (KHTML, like Gecko) Chrome/124.0.0.0 Safari/537.36" etag="-kkIE0wPv9W2xu2sTEc6" version="24.3.1" type="github">
  <diagram id="C5RBs43oDa-KdzZeNtuy" name="Page-1">
    <mxGraphModel dx="1050" dy="557" grid="1" gridSize="10" guides="1" tooltips="1" connect="1" arrows="1" fold="1" page="1" pageScale="1" pageWidth="827" pageHeight="1169" math="0" shadow="0">
      <root>
        <mxCell id="WIyWlLk6GJQsqaUBKTNV-0" />
        <mxCell id="WIyWlLk6GJQsqaUBKTNV-1" parent="WIyWlLk6GJQsqaUBKTNV-0" />
        <mxCell id="vQKT2qaqnEynrrxWTKrF-2" style="edgeStyle=orthogonalEdgeStyle;rounded=0;orthogonalLoop=1;jettySize=auto;html=1;exitX=0.5;exitY=1;exitDx=0;exitDy=0;entryX=0.5;entryY=0;entryDx=0;entryDy=0;" edge="1" parent="WIyWlLk6GJQsqaUBKTNV-1" source="vQKT2qaqnEynrrxWTKrF-0" target="vQKT2qaqnEynrrxWTKrF-1">
          <mxGeometry relative="1" as="geometry" />
        </mxCell>
        <mxCell id="vQKT2qaqnEynrrxWTKrF-0" value="Inicio" style="ellipse;whiteSpace=wrap;html=1;" vertex="1" parent="WIyWlLk6GJQsqaUBKTNV-1">
          <mxGeometry x="330" width="80" height="50" as="geometry" />
        </mxCell>
        <mxCell id="vQKT2qaqnEynrrxWTKrF-4" style="edgeStyle=orthogonalEdgeStyle;rounded=0;orthogonalLoop=1;jettySize=auto;html=1;exitX=0.5;exitY=1;exitDx=0;exitDy=0;" edge="1" parent="WIyWlLk6GJQsqaUBKTNV-1" source="vQKT2qaqnEynrrxWTKrF-1" target="vQKT2qaqnEynrrxWTKrF-3">
          <mxGeometry relative="1" as="geometry" />
        </mxCell>
        <mxCell id="vQKT2qaqnEynrrxWTKrF-1" value="Declarar hs, jm .&lt;div&gt;Declarar ho, min, mh, mm.&lt;/div&gt;" style="shape=parallelogram;perimeter=parallelogramPerimeter;whiteSpace=wrap;html=1;fixedSize=1;" vertex="1" parent="WIyWlLk6GJQsqaUBKTNV-1">
          <mxGeometry x="300" y="80" width="140" height="60" as="geometry" />
        </mxCell>
        <mxCell id="vQKT2qaqnEynrrxWTKrF-7" style="edgeStyle=orthogonalEdgeStyle;rounded=0;orthogonalLoop=1;jettySize=auto;html=1;exitX=0.5;exitY=1;exitDx=0;exitDy=0;" edge="1" parent="WIyWlLk6GJQsqaUBKTNV-1" source="vQKT2qaqnEynrrxWTKrF-3" target="vQKT2qaqnEynrrxWTKrF-6">
          <mxGeometry relative="1" as="geometry" />
        </mxCell>
        <mxCell id="vQKT2qaqnEynrrxWTKrF-3" value="Calcular&amp;nbsp;&lt;div&gt;&lt;span style=&quot;background-color: initial;&quot;&gt;ho = seconds / 3600&lt;/span&gt;&lt;div&gt;mh = seconds % 3600&lt;/div&gt;&lt;div&gt;min = mh / 60&lt;/div&gt;&lt;div&gt;mm = mh % 60&lt;/div&gt;&lt;/div&gt;" style="shape=parallelogram;perimeter=parallelogramPerimeter;whiteSpace=wrap;html=1;fixedSize=1;" vertex="1" parent="WIyWlLk6GJQsqaUBKTNV-1">
          <mxGeometry x="270" y="170" width="200" height="80" as="geometry" />
        </mxCell>
        <mxCell id="vQKT2qaqnEynrrxWTKrF-11" style="edgeStyle=orthogonalEdgeStyle;rounded=0;orthogonalLoop=1;jettySize=auto;html=1;exitX=0.5;exitY=1;exitDx=0;exitDy=0;entryX=0.5;entryY=0;entryDx=0;entryDy=0;" edge="1" parent="WIyWlLk6GJQsqaUBKTNV-1" source="vQKT2qaqnEynrrxWTKrF-6" target="vQKT2qaqnEynrrxWTKrF-9">
          <mxGeometry relative="1" as="geometry" />
        </mxCell>
        <mxCell id="vQKT2qaqnEynrrxWTKrF-13" style="edgeStyle=orthogonalEdgeStyle;rounded=0;orthogonalLoop=1;jettySize=auto;html=1;exitX=1;exitY=0.5;exitDx=0;exitDy=0;entryX=0;entryY=0.5;entryDx=0;entryDy=0;" edge="1" parent="WIyWlLk6GJQsqaUBKTNV-1" source="vQKT2qaqnEynrrxWTKrF-6" target="vQKT2qaqnEynrrxWTKrF-12">
          <mxGeometry relative="1" as="geometry" />
        </mxCell>
        <mxCell id="vQKT2qaqnEynrrxWTKrF-6" value="seconds &amp;lt; 0" style="rhombus;whiteSpace=wrap;html=1;" vertex="1" parent="WIyWlLk6GJQsqaUBKTNV-1">
          <mxGeometry x="320" y="280" width="100" height="90" as="geometry" />
        </mxCell>
        <mxCell id="vQKT2qaqnEynrrxWTKrF-15" style="edgeStyle=orthogonalEdgeStyle;rounded=0;orthogonalLoop=1;jettySize=auto;html=1;exitX=1;exitY=0.5;exitDx=0;exitDy=0;entryX=0;entryY=0.5;entryDx=0;entryDy=0;" edge="1" parent="WIyWlLk6GJQsqaUBKTNV-1" source="vQKT2qaqnEynrrxWTKrF-9" target="vQKT2qaqnEynrrxWTKrF-14">
          <mxGeometry relative="1" as="geometry" />
        </mxCell>
        <mxCell id="vQKT2qaqnEynrrxWTKrF-19" style="edgeStyle=orthogonalEdgeStyle;rounded=0;orthogonalLoop=1;jettySize=auto;html=1;exitX=0;exitY=0.5;exitDx=0;exitDy=0;entryX=1;entryY=0.5;entryDx=0;entryDy=0;" edge="1" parent="WIyWlLk6GJQsqaUBKTNV-1" source="vQKT2qaqnEynrrxWTKrF-9" target="vQKT2qaqnEynrrxWTKrF-18">
          <mxGeometry relative="1" as="geometry" />
        </mxCell>
        <mxCell id="vQKT2qaqnEynrrxWTKrF-9" value="ho &amp;lt; 10" style="rhombus;whiteSpace=wrap;html=1;" vertex="1" parent="WIyWlLk6GJQsqaUBKTNV-1">
          <mxGeometry x="320" y="410" width="100" height="100" as="geometry" />
        </mxCell>
        <mxCell id="vQKT2qaqnEynrrxWTKrF-63" style="edgeStyle=orthogonalEdgeStyle;rounded=0;orthogonalLoop=1;jettySize=auto;html=1;exitX=1;exitY=0.5;exitDx=0;exitDy=0;entryX=1;entryY=0.5;entryDx=0;entryDy=0;" edge="1" parent="WIyWlLk6GJQsqaUBKTNV-1" source="vQKT2qaqnEynrrxWTKrF-12" target="vQKT2qaqnEynrrxWTKrF-60">
          <mxGeometry relative="1" as="geometry">
            <Array as="points">
              <mxPoint x="650" y="325" />
              <mxPoint x="650" y="1070" />
            </Array>
          </mxGeometry>
        </mxCell>
        <mxCell id="vQKT2qaqnEynrrxWTKrF-12" value="Mostrar &quot;Error: Input seconds cannot be negative.&quot;" style="rounded=0;whiteSpace=wrap;html=1;" vertex="1" parent="WIyWlLk6GJQsqaUBKTNV-1">
          <mxGeometry x="470" y="295" width="120" height="60" as="geometry" />
        </mxCell>
        <mxCell id="vQKT2qaqnEynrrxWTKrF-25" style="edgeStyle=orthogonalEdgeStyle;rounded=0;orthogonalLoop=1;jettySize=auto;html=1;exitX=0.5;exitY=1;exitDx=0;exitDy=0;entryX=0.5;entryY=0;entryDx=0;entryDy=0;" edge="1" parent="WIyWlLk6GJQsqaUBKTNV-1" source="vQKT2qaqnEynrrxWTKrF-14" target="vQKT2qaqnEynrrxWTKrF-22">
          <mxGeometry relative="1" as="geometry" />
        </mxCell>
        <mxCell id="vQKT2qaqnEynrrxWTKrF-14" value="Calcular&amp;nbsp;hs = &#39;0&#39; + to_string(ho) + &#39;:&#39;" style="shape=parallelogram;perimeter=parallelogramPerimeter;whiteSpace=wrap;html=1;fixedSize=1;" vertex="1" parent="WIyWlLk6GJQsqaUBKTNV-1">
          <mxGeometry x="470" y="437.5" width="140" height="45" as="geometry" />
        </mxCell>
        <mxCell id="vQKT2qaqnEynrrxWTKrF-16" value="Si" style="text;html=1;align=center;verticalAlign=middle;resizable=0;points=[];autosize=1;strokeColor=none;fillColor=none;" vertex="1" parent="WIyWlLk6GJQsqaUBKTNV-1">
          <mxGeometry x="425" y="298" width="30" height="30" as="geometry" />
        </mxCell>
        <mxCell id="vQKT2qaqnEynrrxWTKrF-17" value="No" style="text;html=1;align=center;verticalAlign=middle;resizable=0;points=[];autosize=1;strokeColor=none;fillColor=none;" vertex="1" parent="WIyWlLk6GJQsqaUBKTNV-1">
          <mxGeometry x="360" y="370" width="40" height="30" as="geometry" />
        </mxCell>
        <mxCell id="vQKT2qaqnEynrrxWTKrF-24" style="edgeStyle=orthogonalEdgeStyle;rounded=0;orthogonalLoop=1;jettySize=auto;html=1;exitX=0.5;exitY=1;exitDx=0;exitDy=0;" edge="1" parent="WIyWlLk6GJQsqaUBKTNV-1" source="vQKT2qaqnEynrrxWTKrF-18" target="vQKT2qaqnEynrrxWTKrF-23">
          <mxGeometry relative="1" as="geometry" />
        </mxCell>
        <mxCell id="vQKT2qaqnEynrrxWTKrF-18" value="Declarar y calcular&lt;div&gt;hora = to_string(ho) + &#39;:&#39;&lt;br&gt;&lt;/div&gt;" style="shape=parallelogram;perimeter=parallelogramPerimeter;whiteSpace=wrap;html=1;fixedSize=1;" vertex="1" parent="WIyWlLk6GJQsqaUBKTNV-1">
          <mxGeometry x="100" y="437.5" width="160" height="45" as="geometry" />
        </mxCell>
        <mxCell id="vQKT2qaqnEynrrxWTKrF-20" value="Si" style="text;html=1;align=center;verticalAlign=middle;resizable=0;points=[];autosize=1;strokeColor=none;fillColor=none;" vertex="1" parent="WIyWlLk6GJQsqaUBKTNV-1">
          <mxGeometry x="425" y="428" width="30" height="30" as="geometry" />
        </mxCell>
        <mxCell id="vQKT2qaqnEynrrxWTKrF-21" value="No" style="text;html=1;align=center;verticalAlign=middle;resizable=0;points=[];autosize=1;strokeColor=none;fillColor=none;" vertex="1" parent="WIyWlLk6GJQsqaUBKTNV-1">
          <mxGeometry x="270" y="428" width="40" height="30" as="geometry" />
        </mxCell>
        <mxCell id="vQKT2qaqnEynrrxWTKrF-28" style="edgeStyle=orthogonalEdgeStyle;rounded=0;orthogonalLoop=1;jettySize=auto;html=1;exitX=0.5;exitY=1;exitDx=0;exitDy=0;entryX=1;entryY=0;entryDx=0;entryDy=0;" edge="1" parent="WIyWlLk6GJQsqaUBKTNV-1" source="vQKT2qaqnEynrrxWTKrF-22" target="vQKT2qaqnEynrrxWTKrF-26">
          <mxGeometry relative="1" as="geometry" />
        </mxCell>
        <mxCell id="vQKT2qaqnEynrrxWTKrF-22" value="Imprimir hs" style="rounded=0;whiteSpace=wrap;html=1;" vertex="1" parent="WIyWlLk6GJQsqaUBKTNV-1">
          <mxGeometry x="480" y="510" width="120" height="60" as="geometry" />
        </mxCell>
        <mxCell id="vQKT2qaqnEynrrxWTKrF-27" style="edgeStyle=orthogonalEdgeStyle;rounded=0;orthogonalLoop=1;jettySize=auto;html=1;exitX=0.5;exitY=1;exitDx=0;exitDy=0;entryX=0;entryY=0;entryDx=0;entryDy=0;" edge="1" parent="WIyWlLk6GJQsqaUBKTNV-1" source="vQKT2qaqnEynrrxWTKrF-23" target="vQKT2qaqnEynrrxWTKrF-26">
          <mxGeometry relative="1" as="geometry" />
        </mxCell>
        <mxCell id="vQKT2qaqnEynrrxWTKrF-23" value="Imprimir hora" style="rounded=0;whiteSpace=wrap;html=1;" vertex="1" parent="WIyWlLk6GJQsqaUBKTNV-1">
          <mxGeometry x="120" y="510" width="120" height="60" as="geometry" />
        </mxCell>
        <mxCell id="vQKT2qaqnEynrrxWTKrF-30" style="edgeStyle=orthogonalEdgeStyle;rounded=0;orthogonalLoop=1;jettySize=auto;html=1;exitX=1;exitY=0.5;exitDx=0;exitDy=0;entryX=0;entryY=0.5;entryDx=0;entryDy=0;" edge="1" parent="WIyWlLk6GJQsqaUBKTNV-1" source="vQKT2qaqnEynrrxWTKrF-26" target="vQKT2qaqnEynrrxWTKrF-29">
          <mxGeometry relative="1" as="geometry" />
        </mxCell>
        <mxCell id="vQKT2qaqnEynrrxWTKrF-34" style="edgeStyle=orthogonalEdgeStyle;rounded=0;orthogonalLoop=1;jettySize=auto;html=1;exitX=0;exitY=0.5;exitDx=0;exitDy=0;entryX=1;entryY=0.5;entryDx=0;entryDy=0;" edge="1" parent="WIyWlLk6GJQsqaUBKTNV-1" source="vQKT2qaqnEynrrxWTKrF-26" target="vQKT2qaqnEynrrxWTKrF-33">
          <mxGeometry relative="1" as="geometry" />
        </mxCell>
        <mxCell id="vQKT2qaqnEynrrxWTKrF-26" value="min &amp;lt; 10" style="rhombus;whiteSpace=wrap;html=1;" vertex="1" parent="WIyWlLk6GJQsqaUBKTNV-1">
          <mxGeometry x="320" y="610" width="100" height="90" as="geometry" />
        </mxCell>
        <mxCell id="vQKT2qaqnEynrrxWTKrF-29" value="Calcular&amp;nbsp;hs = &#39;0&#39; + to_string(min) + &#39;:&#39;" style="shape=parallelogram;perimeter=parallelogramPerimeter;whiteSpace=wrap;html=1;fixedSize=1;" vertex="1" parent="WIyWlLk6GJQsqaUBKTNV-1">
          <mxGeometry x="455" y="630" width="135" height="50" as="geometry" />
        </mxCell>
        <mxCell id="vQKT2qaqnEynrrxWTKrF-31" value="Si" style="text;html=1;align=center;verticalAlign=middle;resizable=0;points=[];autosize=1;strokeColor=none;fillColor=none;" vertex="1" parent="WIyWlLk6GJQsqaUBKTNV-1">
          <mxGeometry x="425" y="628" width="30" height="30" as="geometry" />
        </mxCell>
        <mxCell id="vQKT2qaqnEynrrxWTKrF-40" style="edgeStyle=orthogonalEdgeStyle;rounded=0;orthogonalLoop=1;jettySize=auto;html=1;exitX=0.5;exitY=1;exitDx=0;exitDy=0;entryX=0.5;entryY=0;entryDx=0;entryDy=0;" edge="1" parent="WIyWlLk6GJQsqaUBKTNV-1" source="vQKT2qaqnEynrrxWTKrF-33">
          <mxGeometry relative="1" as="geometry">
            <mxPoint x="185" y="720" as="targetPoint" />
          </mxGeometry>
        </mxCell>
        <mxCell id="vQKT2qaqnEynrrxWTKrF-33" value="Declarar y calcular&amp;nbsp;&lt;div&gt;minutos = to_string(min) + &#39;:&#39;&lt;br&gt;&lt;/div&gt;" style="shape=parallelogram;perimeter=parallelogramPerimeter;whiteSpace=wrap;html=1;fixedSize=1;" vertex="1" parent="WIyWlLk6GJQsqaUBKTNV-1">
          <mxGeometry x="90" y="635" width="190" height="40" as="geometry" />
        </mxCell>
        <mxCell id="vQKT2qaqnEynrrxWTKrF-35" value="No" style="text;html=1;align=center;verticalAlign=middle;resizable=0;points=[];autosize=1;strokeColor=none;fillColor=none;" vertex="1" parent="WIyWlLk6GJQsqaUBKTNV-1">
          <mxGeometry x="280" y="630" width="40" height="30" as="geometry" />
        </mxCell>
        <mxCell id="vQKT2qaqnEynrrxWTKrF-38" style="edgeStyle=orthogonalEdgeStyle;rounded=0;orthogonalLoop=1;jettySize=auto;html=1;exitX=0.5;exitY=1;exitDx=0;exitDy=0;entryX=0.585;entryY=-0.01;entryDx=0;entryDy=0;entryPerimeter=0;" edge="1" parent="WIyWlLk6GJQsqaUBKTNV-1" source="vQKT2qaqnEynrrxWTKrF-29">
          <mxGeometry relative="1" as="geometry">
            <mxPoint x="525.2" y="719.4000000000001" as="targetPoint" />
          </mxGeometry>
        </mxCell>
        <mxCell id="vQKT2qaqnEynrrxWTKrF-49" style="edgeStyle=orthogonalEdgeStyle;rounded=0;orthogonalLoop=1;jettySize=auto;html=1;exitX=0;exitY=1;exitDx=0;exitDy=0;entryX=0.5;entryY=0;entryDx=0;entryDy=0;" edge="1" parent="WIyWlLk6GJQsqaUBKTNV-1" source="vQKT2qaqnEynrrxWTKrF-41" target="vQKT2qaqnEynrrxWTKrF-48">
          <mxGeometry relative="1" as="geometry" />
        </mxCell>
        <mxCell id="vQKT2qaqnEynrrxWTKrF-50" style="edgeStyle=orthogonalEdgeStyle;rounded=0;orthogonalLoop=1;jettySize=auto;html=1;exitX=1;exitY=1;exitDx=0;exitDy=0;entryX=0.5;entryY=0;entryDx=0;entryDy=0;" edge="1" parent="WIyWlLk6GJQsqaUBKTNV-1" source="vQKT2qaqnEynrrxWTKrF-41" target="vQKT2qaqnEynrrxWTKrF-44">
          <mxGeometry relative="1" as="geometry" />
        </mxCell>
        <mxCell id="vQKT2qaqnEynrrxWTKrF-41" value="mm &amp;lt; 10" style="rhombus;whiteSpace=wrap;html=1;" vertex="1" parent="WIyWlLk6GJQsqaUBKTNV-1">
          <mxGeometry x="300" y="780" width="90" height="90" as="geometry" />
        </mxCell>
        <mxCell id="vQKT2qaqnEynrrxWTKrF-53" style="edgeStyle=orthogonalEdgeStyle;rounded=0;orthogonalLoop=1;jettySize=auto;html=1;exitX=0.5;exitY=1;exitDx=0;exitDy=0;entryX=0.5;entryY=0;entryDx=0;entryDy=0;" edge="1" parent="WIyWlLk6GJQsqaUBKTNV-1" source="vQKT2qaqnEynrrxWTKrF-44" target="vQKT2qaqnEynrrxWTKrF-52">
          <mxGeometry relative="1" as="geometry" />
        </mxCell>
        <mxCell id="vQKT2qaqnEynrrxWTKrF-44" value="Calcular&amp;nbsp;jm = &#39;0&#39; + to_string(mm)" style="shape=parallelogram;perimeter=parallelogramPerimeter;whiteSpace=wrap;html=1;fixedSize=1;" vertex="1" parent="WIyWlLk6GJQsqaUBKTNV-1">
          <mxGeometry x="425" y="870" width="130" height="40" as="geometry" />
        </mxCell>
        <mxCell id="vQKT2qaqnEynrrxWTKrF-46" value="Si" style="text;html=1;align=center;verticalAlign=middle;resizable=0;points=[];autosize=1;strokeColor=none;fillColor=none;" vertex="1" parent="WIyWlLk6GJQsqaUBKTNV-1">
          <mxGeometry x="414" y="820" width="30" height="30" as="geometry" />
        </mxCell>
        <mxCell id="vQKT2qaqnEynrrxWTKrF-55" style="edgeStyle=orthogonalEdgeStyle;rounded=0;orthogonalLoop=1;jettySize=auto;html=1;exitX=0.5;exitY=1;exitDx=0;exitDy=0;entryX=0.5;entryY=0;entryDx=0;entryDy=0;" edge="1" parent="WIyWlLk6GJQsqaUBKTNV-1" source="vQKT2qaqnEynrrxWTKrF-48" target="vQKT2qaqnEynrrxWTKrF-54">
          <mxGeometry relative="1" as="geometry" />
        </mxCell>
        <mxCell id="vQKT2qaqnEynrrxWTKrF-48" value="Declarar y calcular&lt;div&gt;seg = to_string(mm)&lt;br&gt;&lt;/div&gt;" style="shape=parallelogram;perimeter=parallelogramPerimeter;whiteSpace=wrap;html=1;fixedSize=1;" vertex="1" parent="WIyWlLk6GJQsqaUBKTNV-1">
          <mxGeometry x="110" y="868" width="150" height="42" as="geometry" />
        </mxCell>
        <mxCell id="vQKT2qaqnEynrrxWTKrF-51" value="No" style="text;html=1;align=center;verticalAlign=middle;resizable=0;points=[];autosize=1;strokeColor=none;fillColor=none;" vertex="1" parent="WIyWlLk6GJQsqaUBKTNV-1">
          <mxGeometry x="240" y="818" width="40" height="30" as="geometry" />
        </mxCell>
        <mxCell id="vQKT2qaqnEynrrxWTKrF-62" style="edgeStyle=orthogonalEdgeStyle;rounded=0;orthogonalLoop=1;jettySize=auto;html=1;exitX=0;exitY=0.5;exitDx=0;exitDy=0;entryX=0.5;entryY=0;entryDx=0;entryDy=0;" edge="1" parent="WIyWlLk6GJQsqaUBKTNV-1" source="vQKT2qaqnEynrrxWTKrF-52" target="vQKT2qaqnEynrrxWTKrF-60">
          <mxGeometry relative="1" as="geometry" />
        </mxCell>
        <mxCell id="vQKT2qaqnEynrrxWTKrF-52" value="Imprimir jm" style="rounded=0;whiteSpace=wrap;html=1;" vertex="1" parent="WIyWlLk6GJQsqaUBKTNV-1">
          <mxGeometry x="430" y="940" width="120" height="60" as="geometry" />
        </mxCell>
        <mxCell id="vQKT2qaqnEynrrxWTKrF-61" style="edgeStyle=orthogonalEdgeStyle;rounded=0;orthogonalLoop=1;jettySize=auto;html=1;exitX=0.5;exitY=1;exitDx=0;exitDy=0;entryX=0;entryY=0.5;entryDx=0;entryDy=0;" edge="1" parent="WIyWlLk6GJQsqaUBKTNV-1" source="vQKT2qaqnEynrrxWTKrF-54" target="vQKT2qaqnEynrrxWTKrF-60">
          <mxGeometry relative="1" as="geometry" />
        </mxCell>
        <mxCell id="vQKT2qaqnEynrrxWTKrF-54" value="Imprimir seg" style="rounded=0;whiteSpace=wrap;html=1;" vertex="1" parent="WIyWlLk6GJQsqaUBKTNV-1">
          <mxGeometry x="120" y="940" width="120" height="60" as="geometry" />
        </mxCell>
        <mxCell id="vQKT2qaqnEynrrxWTKrF-58" style="edgeStyle=orthogonalEdgeStyle;rounded=0;orthogonalLoop=1;jettySize=auto;html=1;exitX=0.5;exitY=1;exitDx=0;exitDy=0;entryX=0;entryY=0;entryDx=0;entryDy=0;" edge="1" parent="WIyWlLk6GJQsqaUBKTNV-1" source="vQKT2qaqnEynrrxWTKrF-56" target="vQKT2qaqnEynrrxWTKrF-41">
          <mxGeometry relative="1" as="geometry" />
        </mxCell>
        <mxCell id="vQKT2qaqnEynrrxWTKrF-56" value="Imprimir minutos" style="rounded=0;whiteSpace=wrap;html=1;" vertex="1" parent="WIyWlLk6GJQsqaUBKTNV-1">
          <mxGeometry x="125" y="720" width="120" height="60" as="geometry" />
        </mxCell>
        <mxCell id="vQKT2qaqnEynrrxWTKrF-59" style="edgeStyle=orthogonalEdgeStyle;rounded=0;orthogonalLoop=1;jettySize=auto;html=1;exitX=0.5;exitY=1;exitDx=0;exitDy=0;entryX=1;entryY=0;entryDx=0;entryDy=0;" edge="1" parent="WIyWlLk6GJQsqaUBKTNV-1" source="vQKT2qaqnEynrrxWTKrF-57" target="vQKT2qaqnEynrrxWTKrF-41">
          <mxGeometry relative="1" as="geometry" />
        </mxCell>
        <mxCell id="vQKT2qaqnEynrrxWTKrF-57" value="Imprimir hs" style="rounded=0;whiteSpace=wrap;html=1;" vertex="1" parent="WIyWlLk6GJQsqaUBKTNV-1">
          <mxGeometry x="463" y="720" width="120" height="60" as="geometry" />
        </mxCell>
        <mxCell id="vQKT2qaqnEynrrxWTKrF-60" value="Fin" style="ellipse;whiteSpace=wrap;html=1;" vertex="1" parent="WIyWlLk6GJQsqaUBKTNV-1">
          <mxGeometry x="280" y="1030" width="120" height="80" as="geometry" />
        </mxCell>
      </root>
    </mxGraphModel>
  </diagram>
</mxfile>
